<?xml version="1.0" encoding="utf-8"?>
<!-- Generator: Adobe Illustrator 25.1.0, SVG Export Plug-In . SVG Version: 6.00 Build 0)  -->
<svg version="1.1" id="Lager_1" xmlns="http://www.w3.org/2000/svg" xmlns:xlink="http://www.w3.org/1999/xlink" x="0px" y="0px"
	 viewBox="0 0 538.89 362.97" style="enable-background:new 0 0 538.89 362.97;" xml:space="preserve">
<path d="M238.46,107.73c-1.06-1.51-0.84-3.96-2.74-5.09c-0.35,0.03-2.72,0.24-3.56,1.92c-0.1,0.2-0.18,0.44-0.24,0.72
	c-0.45,1.1-1.12,2.73-1.9,4.71c-5,12.66-5.54,16.14-9.23,24.88c0,0-4.4,10.43-12.49,16.74c-0.39,0.3-1.45,1.12-2.57,0.92
	c-0.44-0.08-0.85-0.32-1.23-0.73c-0.89-0.8-1.71-1.59-2.49-2.48c-0.74-0.83-1.36-1.65-1.51-1.86c-7.9-10.59-9.49-32.77-9.49-32.77
	c-0.32-4.49-0.53-8.64-0.42-16.95c0.03-2.39,0.07-4.57,0.12-6.6c0.05-0.64,0.1-1.28,0.12-1.92c0.22-1.29,0.42-2.58,0.57-3.86
	c1.04-8.93,2.11-17.67,4.03-26.48c1.75-8.06,3.42-16.15,6.32-23.89c2.79-7.46,6.57-14.69,8.64-22.41c0.69-0.23,1.49-0.2,2.34,0.22
	c3.37,1.32,7.8,3.2,8.01,6.59c0.21,5.84,0.42,12.62-0.63,18.64c-0.63,3.77-1.48,7.35-2.74,10.92c-0.84,1.7-1.69,3.39-4.22,3.39
	c-0.21,0-0.42,0.38-0.63,0.38c1.26,2.07,2.95,2.82,5.48,2.45c1.9-0.19,3.79-0.19,5.48-0.38c1.26,0,2.11-0.56,2.95-1.13
	c0.6-0.8,1.43-1.98,2.27-3.48c1.88-3.4,2.79-6.67,3.64-19.87c0.58-9.06,0.45-12.23-0.02-15.6c-0.32-2.31-0.73-4.2-1.04-5.49
	c-0.17-1.46-1.98-2.7-3.68-3.53c-1.63-1.26-3.61-2.24-5.4-2.86c-0.28-0.13-0.55-0.27-0.83-0.39c-1.09-0.49-2.36-0.73-3.96-0.98
	c-1.67-0.26-10.9-1.66-16.08,1.89c-0.49,0.34-1.78,1.29-3.19,2.6c0,0-1.2,1.11-2.27,2.34c-3.17,3.62-6.64,12.49-8.08,16.16
	c-3.06,7.77-3.17,7.77-3.91,10.11c-0.87,2.74-1.02,3.72-2.59,10.43c-2.84,12.15-3.69,14.82-4.82,21.67
	c-0.32,1.98-0.54,3.51-0.69,4.54c-1.14,8.14-1.56,14.33-1.67,16.04c-0.85,13.49-0.06,23.96,0.27,27.71c0.14,1.64,0.32,3.39,0.6,5.76
	c0.63,5.34,1.92,12.87,4.85,21.85c0.77,1.44,1.55,2.89,2.32,4.33c0.81,1.06,1.75,2.14,2.83,3.22c4.99,4.98,10.83,7.58,15.06,8.98
	c4.15,1.29,7.55,1.36,8.89,1.36c1.81-0.01,3.32-0.19,4.43-0.37c0.63,0,1.27-0.19,1.69-0.38c1.22-0.75,2.94-1.91,4.8-3.51
	c5.26-4.52,7.71-9.2,10.17-14.01c3.56-6.96,4.94-12.78,5.27-14.31c0.39-1.83,0.53-3.01,1.69-9.42c0.56-3.08,1.12-6.16,1.69-9.23
	C238.67,108.85,238.67,108.1,238.46,107.73z"/>
<path d="M312.47,160.83c-0.35-3.65-0.98-8.58-2.22-14.36c-1.21-5.64-2.28-8.74-4.05-17.31c-0.45-2.15-1.97-9.77-0.43-14.73
	c0.84-2.72,2.28-5.2,2.28-5.2c0.68-1.17,1.36-2.12,1.9-2.82c0.19-0.15,0.72-0.62,0.63-1.11c-0.09-0.48-0.74-0.72-1.14-0.87
	c-1.28-0.47-2.7-1-4.34-1.6c-0.15-0.43-0.39-1.14-0.69-2.02c-1.56-4.69-2.9-8.76-3.85-13.49c0,0-0.41-2.07-0.76-4.69
	c-1.38-10.35-6.78-75.7-7.35-82.63c-2.12,0.19-3.91,0.48-5.27,0.75c-3.63,0.72-5.25,1.46-6.49,2.27c-0.11,0.07-0.2,0.13-0.26,0.18
	c-0.63,1.7-2.11,2.45-3.16,3.77c-0.42,0.38-0.63,0.94-0.63,1.51c-0.06,0.35-0.07,0.69-0.06,1.04c-4,12.27-6.39,25-9.42,37.57
	c-0.56,1.46-1.19,3.33-1.69,6.03c-0.63,3.39-2.32,6.4-2.95,9.98c-0.08,0.46-0.17,0.92-0.26,1.38c-0.16,0.49-0.32,0.98-0.49,1.46
	c-2.59,7.39-4.24,14.98-5.8,22.62c-0.25,0.98-0.48,1.96-0.71,2.94c-0.29,1.12-0.59,2.23-0.89,3.33c-1.63,5.9-3.26,11.85-4.65,17.84
	c-0.78,0.77-2.12,0.91-4.48,0.91c-1.27,0-2.53-0.19-4.01-0.19c-0.84,0-1.48,0.19-1.9,0.19c-0.42,0.19-0.84,0.56-0.42,0.94
	c1.69,2.64,3.58,5.08,6.96,5.46c1.48,0.19,1.69,0.75,1.05,1.88c-0.9,1.61-0.77,3.53-1.27,5.27c-0.41,1.46-1.35,5.26-3.47,14.46
	c-1.05,3.69-1.94,7.42-2.8,11.06c-0.14,0.23-0.29,0.45-0.48,0.66c-0.84,0.94,0.42,2.82,1.27,3.95c0.66,0.41,1.72,0.98,3.16,1.32
	c1.71,0.4,3.16,0.31,4.01,0.19c1.9-0.19,3.58-0.94,4-2.82c0.21-1.88,0.84-3.39,1.05-5.27c1.51-5.14,2.62-9.31,3.37-12.24
	c0.66-2.56,1.08-4.33,1.9-7.35c1-3.68,1.91-6.67,2.53-8.66c0.46-0.83,0.93-1.45,1.64-1.73c0.32-0.13,0.64-0.15,0.89-0.15
	c2.03-0.13,4.89-0.35,8.34-0.73c1.63-0.18,2.44-0.26,3.45-0.4c5.2-0.72,6.86-1.52,11.62-2.26c1.05-0.16,2.73-0.4,4.85-0.56h0.21
	c0.21,0,0.63,0.19,0.84,0.38c0.1,2.08,0.16,3.57,0.21,4.71c0.02,0.42,0.04,1.08,0.11,1.97c0,0,0.09,1.15,0.23,2.35
	c0.75,6.23,7.03,29.8,7.25,36.74c0.01,0.23,0.02,0.86,0.42,1.51c1.05,1.69,7.59,1.32,9.49,2.07c1.05,0.38,2.53-0.19,2.74-1.51
	C312.47,163.66,311.84,162.34,312.47,160.83z M285.27,104.52c-1.54,0.24-5.09,0.79-14.76,2.45c-1.58,0.27-3.82,0.66-6.54,1.13
	c1.05-3.2,1.69-6.59,2.74-9.6c0.99-2.82,1.1-4.13,1.76-6.44c1.2-4.16,2.2-7.04,2.67-8.44c2.4-7.21,3.7-14.02,5.27-22.22
	c0.63-3.3,1.39-7.58,2.11-12.62l2.76-9.14c0.33,1.26,0.73,2.51,1.09,3.76c0.31,4.84,1.6,9.99,2.21,14.37
	c0.38,2.72,0.7,5.48,1.05,8.25c0.66,9.99,0.93,16.44,2.17,22.88c0.09,0.48,0.32,1.62,0.63,3.35c0.91,4.97,1.53,8.96,1.9,11.53
	C289.22,103.93,287.44,104.19,285.27,104.52z"/>
<path d="M411.88,162.97c-0.09-0.63-0.49-0.99-0.98-1.13c-1.75-1.94-4.44-4.82-7.92-8.2c-1.32-1.27-2.28-2.17-2.61-2.48
	c-7.34-6.84-17.76-18.93-30.42-32.62c-1.02-1.1-2.76-2.98-4.96-5.33c0-0.01-0.01-0.02-0.01-0.03c-0.42-1.12-0.63-1.73-0.61-2.34
	c0.04-1.2,0.63-2.08,0.82-2.37c6.86-10.56,11.77-22.06,18.35-32.77c1.76-2.87,4.87-8.06,8.22-14.5c2.47-4.74,3.92-8.54,4.84-11.33
	c0.4-1.23,0.97-2.92,1.49-5.06c1.45-5.97,2.99-12.34,0.42-19.02c-1.38-3.59-3.55-6.25-5.06-8.1c-1.56-1.91-3.1-3.8-5.69-5.65
	c-0.15-0.11-0.3-0.19-0.44-0.29c-3.97-3.09-9.7-4.63-14.14-5.61c-7.08-1.55-14.49-1.66-21.6-0.22c-7.73,1.57-15.01,5.08-21.99,8.66
	c-7.42,3.81-15.56,8.11-21.6,13.94c-0.11,0.11-0.13,0.25-0.13,0.25c-0.07,0.27,0.05,0.52,0.07,0.57c0.36,0.79,0.79,7.57,3.11,9.47
	c0.38,0.31,0.8,0.52,0.8,0.52c0.18,0.08,1.26,0.62,2.09,0.46c0.41,0.13,0.87,0.05,1.26-0.35c4.49-4.67,9.06-9.24,14.12-13.28
	c0.64-0.41,1.29-0.82,1.94-1.22c2.02-1.22,4.1-2.34,6.22-3.36c0.11-0.05,0.22-0.09,0.33-0.14c-0.63,9.24-3.55,52.27-3.61,53.55
	c-0.02,0.42-0.04,0.83-0.04,0.83c-0.02,0.56-0.02,1.09-0.02,1.61c-0.14,5.02-0.21,10.05-0.2,15.07c-0.12,2.74-0.25,5.48-0.37,8.23
	c-0.07,1.57-0.01,2.71-0.01,3.07c0.06,8.89-2.07,22.26-2.29,34.6c-0.02,1.12,0,2.39-0.1,4.49c-0.33,7.03-0.49,10.54-0.55,10.76
	c-0.14,0.48-0.75,2.34-0.08,4.46c0.17,0.53,0.37,0.94,0.5,1.19c0.29,0.24,5.94,4.78,9.85,5.05c0.38,0.03,1.27,0.19,2.16,0.03
	c2.51-0.45,3.83-0.24,4.22-0.56c0.15-0.13,0.26-0.3,0.26-0.3c0.44-0.59,0.51-1.23,0.53-1.62c0.1-1.66,1.06-26.99,1.18-29.59
	c0.11-2.33,0.38-4.62,0.38-4.62c0.17-1.48,0.42-3.18,0.8-5.06c0.24-1.22,0.48-2.22,0.64-2.88h0.42c4.43,5.09,8.65,10.36,13.07,15.26
	c8.83,9.76,10.94,13.19,16.24,18.27c2.96,2.84,5.49,4.97,10.54,9.23c3.28,2.77,5.53,4.56,8.36,6.26c3.14,1.89,6.16,3.16,6.62,3.34
	c0.78,0.32,1.44,0.58,1.92,0.75c0.8,0.52,2.02,0.63,2.68-0.2c1.09-1.35,0.99-2.74,0.92-4.37
	C411.72,166.52,412.13,164.76,411.88,162.97z M353.47,98.94c-0.49,0.92-0.89,1.69-1.16,2.19c-0.18,0.06-0.39,0.1-0.58,0.08
	c-0.35-1.46-0.66-2.93-0.91-4.42c-0.26-2.23-0.51-4.27-0.75-6.08c-0.84-9.78-0.09-19.88,0.53-29.28
	c0.93-14.19,3.26-30.51-2.07-44.16c1.04-0.31,2.08-0.61,3.14-0.88c6.94-1.78,16.79-4.03,23.5-0.6c2.89,1.48,6.13,3.68,8.3,6.35
	c0.29,0.59,0.48,1.1,0.62,1.45c2.86,7.37,0.49,17.09,0.49,17.09c-0.7,2.87-2.65,7.12-6.54,15.63c-1.73,3.78-3,6.25-3.37,6.97
	c-0.65,1.25-1.4,2.65-2.24,4.23c-1.2,2.24-2.12,3.93-2.24,4.15c-2.51,4.6-5.31,7.47-9.14,13.62
	C359.09,88.4,357.2,91.91,353.47,98.94z"/>
<path d="M465.73,143.15c-1.71-0.84-4.04-0.59-8.63,0.01c-3.22,0.42-5.82,0.95-7.85,1.37c-3.14,0.64-5.58,1.23-5.58,1.23
	c-1.49,0.32-3.41,0.74-5.96,1.33c-1.2,0.28-2.46,0.72-4.02,0.39c-0.34-0.07-1.14-0.24-1.75-0.68c-1.84-1.32-1.04-4.41-0.28-11.32
	c0.19-1.71,0.31-3.08,0.37-3.83c0,0,0.56-13.65,2.5-31c0.04-0.38,0.2-1.71,0.32-3.53c0.06-0.85,0.08-1.5,0.1-1.89
	c0.17-4.15,0.34-11.8,0.35-14.99c0-0.15,0-0.72,0.02-1.48c0.03-1.31,0.08-2.27,0.09-2.47c0.21-4.06-0.16-23.02-0.21-24.11
	c0-0.03-0.01-0.19-0.01-0.41c0-0.3,0.01-0.53,0.01-0.72c0.06-1.8,0-2.65,0-5.65c0-7.33,0.43-10.95-0.21-17.33
	c-0.08-0.81-0.16-1.47-0.21-1.88c-0.29-1.9-0.8-5.05-1.48-8.66c-0.32-1.68-0.76-1.98-0.91-2.16c-1.29-1.49-3.61-1.73-6.05-1.99
	c-2.13-0.22-1.58,0.09-4.48-0.11c-0.46-0.03-1.75-0.13-3.35,0.18c0,0-0.86,0.24-1.74,0.81c-2.76,1.78-0.13,28.3,0.47,37.9
	c0.45,7.3,0.11,16.97-1,36.28c-0.67,11.7-1.16,23.4-1.93,35.09c-0.57,8.68-1.18,17.4-0.48,26.06c0.01,1.29,0.05,2.59,0.08,4.29
	c0.02,1.41,0.04,3.48,0,6.03c-0.42,1.88,0.63,3.2,2.53,3.2c2.69,0,5.32,0.81,8.01,0.94c6.59,0.32,7.29,0.69,8.93-0.01
	c1.8-0.77,2.74-1.98,3.3-2.63c6.01-6.99,19.43-10.11,26.17-11.68c1.58-0.37,4.04-0.89,7.14-1.32
	C468.69,144.92,466.73,143.64,465.73,143.15z"/>
<path d="M529.1,91.13c-1.74-2.31-4.09-3.9-4.09-3.9s-0.61-0.41-1.28-0.79c-1.7-0.95-8.49-4.16-16.1-7.53
	c-1.83-1.01-3.7-1.95-5.58-2.81c-3.47-1.58-7.02-2.98-10.57-4.37c-1.78-0.7-3.84-1.14-5.39-2.3c-1.86-1.39-2.5-2.7-2.88-4.12
	c0.1-0.43,0.19-0.86,0.31-1.28c0.55-1.64,1.4-3.44,2.22-5.19c0.23-0.5,0.51-0.96,0.51-0.96c0.07-0.12,0.13-0.21,0.16-0.26
	c0.64-1.67,1.73-4.29,3.38-7.36c0.43-0.8,0.87-1.57,1.32-2.32c3.05-4.51,6.62-8.74,10.35-12.9c4.35-4.85,8.53-9.85,12.83-14.75
	c0.09-0.11,0.19-0.21,0.29-0.31c1.88-1.9,3.76-3.84,5.64-5.83c1.45-1.46,2.86-2.95,4.17-4.5c1.28-1.4,2.54-2.8,3.77-4.19
	c-2.07-0.56-3.74-0.61-4.85-0.56c-4.65,0.19-7.09,2.43-12.02,1.69c-0.74-0.11-0.66-0.14-1.1-0.19c-3.1-0.33-7.89,4.15-8.75,4.95
	c-0.41,0.38-0.73,0.7-0.91,0.88c-0.48,0.38-1.22,0.97-2.11,1.69c-8.9,7.22-17.81,14.48-23.83,22.41
	c-9.72,12.82-13.45,29.76-9.01,33.62c1.06,0.92,5.05,3.26,7.96,4.8c1.24,0.66,2.28,1.18,2.78,1.42c6.29,3.04,9.9,2.71,18.31,5.74
	c1.68,0.61,5.05,1.94,8.4,4.52c0.73,0.56,1.27,1.07,1.5,1.28c0.6,0.55,3.22,3.04,4.86,6.31c2.77,5.53,1.6,11.03,1,13.83
	c-0.48,2.25-1.08,3.89-1.67,5.17c-2.87,6.27-9.48,14.18-10.51,15.4c-6.7,7.68-6.95,8.1-10.58,12.08c-2.56,2.81-4.74,5.13-6.29,6.76
	c-0.97,0.99-1.72,1.82-2.22,2.39c-3.18,3.61-3.25,4.67-6.21,8.53c-1.67,2.17-2.94,3.96-5.48,7.53c-0.59,0.82-1.46,2.09-1.02,3.35
	c0.11,0.33,0.47,1.08,2.7,2.19c1.25,0.62,3.23,1.42,5.92,1.81c0,0,1.85-0.36,3.28-1.1c1.51-0.79,2.34-1.82,2.84-2.44
	c0.21-0.26,5.12-4.72,14.94-13.65c2.47-2.24,3.24-2.91,4.61-4.15c4.77-4.31,14.58-13.2,20.52-21.42
	c3.66-5.08,8.93-14.17,11.13-28.51C532.33,101.81,532.12,95.14,529.1,91.13z"/>
<path d="M128.42,184c-0.73-0.48-1.34-0.84-1.74-1.08c-0.77-0.33-1.54-0.56-2.33-0.7c0,0,0,0-0.01,0c0,0,0,0,0,0
	c-2.98-0.52-6.07,0.18-9.17,0.73c-5.49,0.96-10.94,2.11-16.38,3.33c-11.56,2.6-23,5.66-34.34,9.07
	c-11.03,3.32-21.97,6.91-32.87,10.6c-5.29,1.79-10.57,3.61-15.85,5.43c-4.71,1.63-9.8,2.95-14.11,5.54
	c-0.18,0.11-0.3,0.26-0.38,0.42c-0.28,0.16-0.55,0.36-0.77,0.64c-0.4,0.52-0.56,1.18-0.45,1.93c0,0.75,0,1.51,0.21,2.26
	c0.21,1.51,1.26,2.63,2.74,3.39c0.66,0.31,1.67,0.71,2.95,0.94c2.52,0.46,4.71,0.01,8.37-1.18c5.97-1.95,8.47-3.48,14.4-5.6
	c0.79-0.28,1.5-0.45,2.53-0.94c1.93-0.93,3.76-1.86,6.15-2.72c0.93-0.34,1.05-0.34,3.34-1.04c1.66-0.51,4.04-1.26,6.96-2.26
	c0.2,2.2,0.38,5.09,0.39,8.54c-0.07,1.67-0.1,3.34-0.11,5.02c-0.01,0.13-0.01,0.26-0.02,0.39c-0.2,1.67-0.28,3.39-0.29,5.12
	c-0.1,3.07-0.02,5.64,0.12,7.93c-0.42,5.13-0.6,10.29-0.93,15.31c-0.67,10.32-0.9,20.7-0.9,31.04c0,1.03,0.01,2.06,0.03,3.09
	c-0.09,2.08-0.17,4.15-0.26,6.23c-0.19,2.99-0.36,5.98-0.52,8.97c-0.28,5.56-0.87,11.51-0.85,17.37c-0.02,0.31-0.04,0.63-0.04,0.97
	c0,2.34-0.12,3.19-0.21,6.21c-0.11,3.53-0.16,5.29-0.44,7.03c-0.27,1.71-0.49,2.25-0.99,5.14c-0.28,1.61-0.47,2.95-0.59,3.84
	c-0.15,0.33-0.2,0.68-0.13,1.08c-0.31,2.63-0.52,5.28-0.73,7.92c-0.1,0.21-0.08,0.42,0.03,0.61c0.06,0.15,0.16,0.26,0.28,0.34
	c0.01,0.01,0.02,0.02,0.03,0.03c1.69,2.26,4.01,3.58,7.17,2.82c2.74-0.75,7.8-0.38,11.81-0.94h0.63c1.05-0.19,2.11-0.75,2.32-1.51
	c0.37-4.29,0.94-11.27,1.46-19.87c1.79-30.03,0.98-47.95,0.95-93.04c-0.01-7.6,0.01-19.17,0.12-33.43c0.08-0.17,0.18-0.35,0.31-0.51
	c0.5-0.6,1.37-0.82,2.63-1.18c0.79-0.22,1.19-0.33,2.07-0.45c3.35-0.44,18.2-5.84,20.07-6.52c9.1-3.29,9.27-2.81,18.98-6.4
	c5.37-1.99,8.06-2.98,9.41-3.65c3.03-1.5,7.21-3.92,9.15-3.88c0.41,0.01,1.8-0.08,1.91-0.55C130.58,185.75,130.6,185.44,128.42,184z
	"/>
<g>
	<path d="M204.13,185.27c0.42,0.19,1.06,0.19,1.48,0.19c0.37-0.08,1.06-0.24,1.87-0.57c3.61-1.44,7.19-5.08,6.41-8.27
		c-0.3-1.22-1.15-1.97-2.09-2.81c-3.59-3.19-10.07-4.98-13.26-2.62c-0.47,0.35-0.97,0.86-1.37,1.65v1.51
		C197.17,180.56,199.49,182.82,204.13,185.27z"/>
	<path d="M226.69,183.38c0.54,0.03,1.29,0.05,2.16-0.05c0.44-0.05,1.86-0.21,3.24-0.8c0.47-0.2,3.6-1.59,4.55-4.7
		c0.23-0.73,0.78-2.52-0.18-3.94c-0.26-0.38-0.8-0.92-1.87-2c-0.47-0.48-0.88-0.86-1.16-1.13c-1.26-0.94-2.32-1.7-3.79-1.51h-1.9
		c-0.49-0.07-1.82-0.19-2.97,0.53c-0.5,0.31-0.83,0.65-1.03,0.98c-1.69,2.64-1.69,5.08-0.84,7.91
		C223.32,181.31,225.21,182.25,226.69,183.38z"/>
	<path d="M241.64,352.92c-0.07-0.51-0.13-1-0.19-1.46c0.16-5.29,0.3-11.12-1.41-16.13c-1.17-7.01-2.51-14.06-3.97-21.01
		c-0.8-3.78-1.78-7.45-2.21-11.31c-0.13-1.18-0.15-1.99-0.29-2.72c5.63-2.91,6.66-4.31,6.4-5.03c-0.04-0.11-0.14-0.32-1.14-0.86
		c-1.72-0.95-3.3-1.38-4.34-1.6c-0.16-0.42-0.42-1.13-0.69-2.02c-0.56-1.9-0.76-3.41-0.84-4.12c-1.01-8.2-1.28-16.13-1.28-16.13
		c-0.29-4.64-0.67-12.28-0.62-21.77c0.07-13.75,0.97-16.97,0.69-30.15c0,0,0-3.11-1.89-23.55c-0.03-0.38-0.1-0.89-0.22-1.5
		c-0.16-0.8-0.31-1.67-0.83-2.62c-0.32-0.58-0.63-0.93-0.86-1.33c-0.21-0.38-5.69,0.38-6.11,0.38c-2.32,0.25-4.64,0.5-6.96,0.75
		c-0.54-0.13-0.95-0.1-1.19-0.06c-1.08,0.18-1.52,0.91-3.6,2.33c-0.11,0.08-0.21,0.14-0.26,0.18c-0.37,0.48-0.88,1.16-1.42,2.02
		c-0.39,0.62-1.31,2.17-2.15,4.46c-2.27,4.99-3.18,10.76-4.62,15.92c-2.58,9.24-5.14,18.48-7.51,27.77
		c-2.41,9.46-4.63,18.99-5.97,24.73c-2.06,8.77-2.83,12.34-4.49,18.17c-2.07,7.25-4.13,13.09-5.58,16.97
		c-0.8,0.26-1.91,0.32-3.47,0.32c-1.27,0-2.53-0.19-4.01-0.19c-0.84,0-1.48,0.19-1.9,0.19c-0.42,0.19-0.84,0.56-0.42,0.94
		c1.69,2.64,3.58,5.09,6.96,5.46c0.45,0.06,0.77,0.15,1,0.28c-1.46,3.93-2.49,8.27-3.25,12.72c-0.7,2.35-1.3,4.73-1.91,7.08
		c-0.53,2.03-1.17,4.11-1.6,6.2c-3.03-3.16-6.05-6.33-9.02-9.55c-6.7-7.26-12.76-15.03-18.96-22.69c-0.14-0.28-0.28-0.55-0.41-0.83
		c-0.84-2.26-0.84-2.45,0.21-4.71c2.74-4.71,5.06-10.17,9.28-14.5c0.21-0.19,0.42-0.38,0.63-0.75c1.37-3.16,3.47-6.16,4.77-9.44
		c5.42-8.08,10.32-16.46,13.68-25.45c2.53-4.52,3.59-9.01,4.53-13.51c1.76-8.4,2.79-13.33,0.42-19.02c-1.51-3.63-4.18-7.02-5.06-8.1
		c-1.57-1.93-3.1-3.8-5.69-5.65c-4.86-3.47-10.13-4.48-13.28-5.09c-0.83-0.16-3.82-0.58-7.59-1.13c-0.21-0.03-0.5-0.07-0.84-0.09
		c0,0-0.92-0.07-1.87-0.02c-2.48,0.14-16.9,3.5-16.9,3.5c-2.45,0.57-3.94,0.86-5.6,1.4c-0.66,0.22-1.12,0.41-1.78,0.67
		c-5.64,2.23-8.53,3.38-11.92,4.91c-1.21,0.55-1.83,0.8-2.42,1.11c-4.85,2.64-9.07,5.65-13.49,8.47c-1.05,0.56-2.11,1.13-3.16,2.07
		c-0.63,0.38-1.05,0.94-0.21,1.51c1.05,1.13,1.26,2.07,1.26,3.58c0.21,0.94,0.21,1.88,0.21,2.82c-0.21,1.51,0.84,2.64,1.69,3.58
		c0.81,0.9,3.16-0.56,3.16-0.56c7.62-6.97,13.29-10.7,13.29-10.7c2.17-1.43,5.32-3.28,9.45-5.04c-0.12,5.95-1.19,12.01-1.88,17.88
		c-0.89,7.52-1.41,15.07-1.76,22.64c-0.38,8.31-0.48,16.61-0.34,24.91c0.1,5.64-0.14,9.14-0.23,13.11
		c-0.57,23.09-2.24,44-2.24,44.08c0.11,1.85,0.62,10.31-0.48,11.78c-0.05,0.07-0.26,0.33-0.29,0.7c-0.03,0.36,0.12,0.74,0.5,1.19
		c0.49,0.38,1.16,0.86,1.99,1.37c0.71,0.43,1.79,1.04,3.47,1.75c2.49,1.05,4.2,1.77,6.56,1.97c1.81,0.15,3.36,0.28,4.22-0.56
		c0.7-0.69,0.4-1.49,0.63-4.33c0.02-0.19,0.14-1.14,0.38-3.04c0.73-5.72,1.42-5.89,1.44-8.94c0-0.36-0.01-0.67-0.02-0.95
		c0.3-2.8,0.52-5.58,0.79-8.25c0.59-5.77,1.47-11.75,1.77-17.65c4.15,4.81,8.13,9.74,12.3,14.35c3.59,3.95,12.02,14.5,16.24,18.27
		c5.7,5.09,5.04,3.98,10.54,9.23c2.18,2.08,4.82,4.28,8.36,6.26c0.94,0.53,1.01,0.51,1.95,1.06c1.73,1.01,3.18,2.07,5.32,2.88
		c0.52,0.2,1.16,0.41,1.67,0.16c0.43-0.21,0.57-0.64,0.74-1.25c0.58-2.04,0.87-3.09,0.97-4.8c0.01-0.26,0.01-0.55,0.01-1.01
		c0.42-0.92,0.33-2.05-0.66-3.04c-1.88-1.87-3.76-3.74-5.63-5.62c0.26-0.35,0.45-0.75,0.56-1.24c0.21-1.88,0.84-3.39,1.05-5.27
		c0.22-0.52,0.59-1.4,0.98-2.52c1.33-3.83,1.07-5.13,2.4-9.72c0.37-1.29,0.61-1.95,1.05-3.64c0.48-1.86,0.78-3.23,0.85-3.7
		c0.42-2.82,1.69-5.84,2.53-8.66c0.63-1.13,1.27-1.88,2.53-1.88c7.8-0.75,15.82-1.13,23.41-3.39c0.61-0.05,1.23-0.1,1.87-0.16
		c1.11-0.11,2.17-0.25,3.19-0.4c0.21,0,0.63,0.19,0.84,0.38c0.02,1.1,0.07,2.73,0.21,4.71c0.42,5.77,1.29,9.68,2.56,15.84
		c0.64,3.1,1.59,7.81,2.71,13.72c0.04,0.16,0.12,0.51,0.21,0.94c0.6,2.71,1.23,6.19,2.11,10.55c0.21,1.06,0.25,1.23,0.42,1.51
		c1.05,1.69,7.59,1.32,9.49,2.07c1.05,0.38,2.53-0.19,2.74-1.51C241.84,354.52,241.67,353.17,241.64,352.92z M126.25,288.4
		c-0.04-0.04-0.08-0.06-0.13-0.11c0.01-0.46,0.01-0.93,0.01-1.4c0,0,0-0.71-0.01-1.42c-0.03-2.29-3.07-40.58-3.01-70.71
		c0-0.84,0.01-2.8,0.04-5.35c7.26-2.46,14.88-4.17,22.3-5.82c4.63,0.51,8.81,1.99,12.29,5.8c1.43,1.57,2.01,3.08,2.47,4.19
		c0.54,1.31,1.27,3.45,1.48,6.92c0.23,3.7-0.27,6.35-1,10.18c-0.18,0.97-0.51,2.66-1,4.49c-1.5,3.24-2.78,6.67-4.57,9.66
		c-0.04,0.07-0.09,0.14-0.13,0.21c-0.38,0.58-0.62,0.93-0.84,1.27c-0.53,0.81-0.93,1.5-1.28,2.15c-0.05,0.09-0.08,0.17-0.13,0.26
		c-2.57,4.15-5.22,8.25-7.82,12.37c-3.18,5.04-6.17,10.19-9.42,15.18C132.79,280.43,129,284.2,126.25,288.4z M214.67,294.5
		c-1.54,0.24-5.09,0.79-14.76,2.45c-1.58,0.27-3.82,0.66-6.53,1.13c1.05-3.2,1.69-6.59,2.74-9.6c1.2-3.43,1.17-4.34,1.76-6.44
		c0.61-2.17,1.09-3.71,1.24-4.18c0.73-2.23,3.96-15.46,11.76-48.9c0.56,1.75,1.11,3.33,1.48,4.8c0.27,1.84,0.45,3.69,0.59,5.54
		c0.03,1.83,0.03,3.7,0.32,5.56c0.24,5.15,0.4,10.32,1.23,15.41c0.75,4.63,1.26,9.33,1.64,14.02c0,0.14,0.01,0.29,0.01,0.43
		c0,0.48,0.05,0.86,0.11,1.18c0.03,0.4,0.1,1.34,0.19,2.53c0.57,7.89,0.67,10.19,1.99,13.02c0.24,0.51,0.65,1.33,1.29,2.28
		C218.62,293.9,216.85,294.16,214.67,294.5z"/>
</g>
<path d="M322.56,269.76c-0.97-6.5-5.34-11.36-10.97-12.99c-1.56-0.84-3.06-1.2-3.9-1.4c-1.32-0.31-2.39-0.43-2.99-0.43
	c-5.69,0-11.6-0.56-17.5,0.57c-0.21,0.19-0.63-0.19-0.84-0.57c-0.14-0.06-0.21-0.13-0.24-0.2c-0.06-0.19,0.11-0.42,0.24-0.56
	c9.35-10.11,18.21-18.43,18.21-18.43c2.61-2.45,4.13-4.13,6.03-6.24c3.4-3.76,5.06-6.05,6.38-8.8c0.25-0.51,0.9-1.92,1.42-3.63
	c0.76-2.47,1.8-7.32,0.21-13.94c-0.84-2.82-3.37-4.9-6.12-6.59c-1.97-1.22-4.87-3.02-10.12-4.14c-2.13-0.45-10.2-2.01-27.2,1.51
	c-7.58,1.57-8.11,2.32-17.71,4.35c-6.2,1.31-11.35,2.13-14.77,2.62c-0.42,0-1.05,0-1.69,0.19c-0.22,0.08-0.53,0.22-0.76,0.49
	c-0.47,0.56-0.3,1.32-0.18,1.8c0.51,2.05,0.77,3.08,1.36,4.11c1.17,2.03,2.7,3.5,4.01,4.52c2.22-0.68,4.58-1.49,7.05-2.47
	c1.85-0.73,3.57-1.49,5.18-2.24c0.95,0.68,0.54,1.81,0.6,2.85c-1.07,26.8-1.69,53.6-2.27,80.42c-0.14,6.78-0.31,13.57-0.48,20.35
	c-0.16,6.32-1.02,13.01-0.12,19.29c0.59,4.13,3.2,7.97,6.59,9.52c1.49,0.81,3.21,1.53,6.64,0.72c1.69-0.75,3.37-0.56,5.06-1.13
	c0,0,0.21-0.19,0.42-0.19c0.5-0.09,1.13,0.05,1.6,0.31c-1.71,4.12-3.02,8.41-3.83,12.87c-0.05,0.29,0.03,0.52,0.17,0.69
	c-0.02,0.08-0.04,0.17-0.05,0.26c-0.07,0.37-0.04,0.59,0.11,0.68c0.57,0.36,2.85-1.44,6.85-5.39c2.11-1.51,3.37-3.2,4.85-4.9
	c3.92-4.57,7.08-8.63,9.49-11.87c0.83-1.11,4.63-6.34,9.28-13.56c2.32-3.6,3.92-6.1,5.9-9.72c0.67-1.22,2.46-4.55,4.46-8.97
	c0.67-1.47,1.25-2.71,1.65-3.69C319.78,288,323.92,278.93,322.56,269.76z M277.53,200.09c6.5-1.89,10.63-3.08,15.34-2.3
	c1.79,0.3,4.3,0.71,6.35,2.54c2.81,2.51,2.91,6.06,2.93,7.85c0.06,5.61-2.95,9.67-8.74,17.47c-3.31,4.45-6.86,8.19-7.79,9.16
	c-1.02,1.06-2.02,2.07-2.21,2.24c-2.11,1.88-4.22,3.77-6.33,5.84c-0.34-0.61-0.75-1.45-1.1-2.49c0,0-0.13-0.39-0.24-0.8
	c-0.51-1.93-1.35-36.49-1.4-38.52C275.07,200.84,276.17,200.49,277.53,200.09z M302.66,285.56c-2.72,6.61-5.36,13.22-8.81,19.49
	c-4.44,8.05-8.75,16.15-12.88,24.35c-0.92,1.44-1.77,2.9-2.57,4.4c-0.47,0.5-0.89,0.93-1.27,1.3c1.05-12.04-0.32-24.01-0.84-36.04
	c-0.36-8.28,0.95-17.43-0.37-25.84c0.16-2.71,0.18-5.49-0.05-8.18c0.05-0.65,0.07-1.05,0.07-1.05c0.02-0.42,0.05-1.17,0.6-1.83
	c0,0,0.29-0.36,0.74-0.62c2.21-1.23,17.99-1.97,20.24-2.07c1.36,0.09,2.91,0.39,4.43,1.13c3.32,1.62,4.89,4.57,5.64,7
	C306.63,273.95,305.18,279.43,302.66,285.56z"/>
<path d="M398.95,189.6c-0.04-0.01-0.11-0.01-0.18-0.02c-0.5-0.05-1.26-0.12-1.93,0.21c-0.15,0.07-0.37,0.21-0.58,0.44
	c-2.18,6.01-4.77,12.29-7.85,18.77c-1.1,2.32-2.23,4.58-3.37,6.78c0.21,0,0.84,0.19,1.05,0.38c0.21,0.19,0,0.38,0,0.75
	c0,0-0.21,0.19-0.21,0.38c-0.42-0.38-0.63-0.56-0.63-0.94c-0.21,0-0.21-0.19-0.21-0.56v-0.19c-1.27,0.19-1.48,0.75-1.48,1.32
	c0,0.38,0.21,0.94,0.84,1.13c0.87,0.2,1.35,0.44,1.49,0.79c0.19,0.47-0.29,1.1-0.44,1.28c-1.35,1.69-1.74,3.87-2.96,5.65
	c-1.15,1.69-3.33,5.78-7.8,16.01c-1.24,3.24-2.7,6.67-4.43,10.25c-1.52,3.14-3.08,6.06-4.64,8.77c-0.21,0.19-1.05,0.56-1.69,0.94
	c-0.42,0.19-3.16,0.38-3.79-0.19c-0.23-0.27-0.5-0.61-0.74-1.04c0,0-0.3-0.53-0.49-1.12c-2.05-6.43-4.26-19.13-4.26-19.13
	c-0.48-2.74-1.01-5.44-1.78-8.9c-0.21-0.93-0.46-1.96-0.8-3.24c-1.59-5.94-3.95-12.91-3.95-12.91c-0.94-2.16-1.66-3.94-2.14-5.16
	c-1.67-4.25-2.08-5.86-3.55-8.21c-1.07-1.7-2.19-2.97-2.95-3.77c-0.21-0.38-0.63-0.94-1.05-0.94c-3.37-0.38-6.33-0.38-9.28,0.75
	c-3.59,0.19-4.22,0.57-4.22,0.94c-0.14,0.53-0.31,1.35-0.27,2.35c0,0,0.03,0.74,0.22,1.48c0.63,2.55,8.16,25.95,10.17,33.07
	c0.87,3.09,2.01,7.73,2.74,13.56c0.08,0.42,0.21,1.04,0.36,1.79c1.52,7.4,2.95,13.02,3.46,15.01c0.86,3.37,1.97,7.42,3.35,12.02
	c0.4,0.52,0.96,1.15,1.73,1.78c0.98,0.8,1.96,1.3,2.7,1.61c1.27,1.14,1.58,2.06,1.75,3.18c0.1,0.35,0.17,0.73,0.19,1.14c0,0,0,0,0,0
	c0,0,0,0,0,0.01c0.01,0.24,0.02,0.49,0,0.75c-0.68,11.54-3.17,22.8-4.95,34.19c-1.13,7.23-1.37,14.45-1.48,21.69
	c0.27,3.47,0.65,7.02,1.17,10.01c0.13,0.72,0.68,1.16,0.68,1.16c0.25,0.24,0.5,0.38,0.67,0.46c0.76,0.37,4.29,1.81,9.13,3.7
	c1.05,0.38,2.95,0.75,4.43,1.13c0.84,0.19,1.48,0.19,2.32-0.19c2.11-0.94,2.95-2.07,1.48-3.39c-0.2-0.28-0.55-0.8-0.9-1.48
	c-1.57-3.1-1.24-6.02-1.14-7.03c0.35-3.52,1.46-18.97,3.21-40.39c-0.02-0.2-0.04-0.4-0.04-0.6c0.01-2.17,0.2-4.35,0.59-6.48
	c0.42-6.6,3.59-13.53,5.88-19.37c0.67-1.71,1.38-3.41,2.12-5.1c0.47-1.39,0.8-2.33,1.19-3.37c0.39-1.06,0.97-2.53,1.74-4.31
	c0.46-0.88,0.93-1.76,1.39-2.64c0.1-0.3,0.21-0.61,0.31-0.91c0.22-0.66,0.53-1.23,0.9-1.7l2.45-5.48c1.34-3.64,2.67-7.28,4.01-10.92
	c0.68-1.97,1.84-5.29,3.33-9.4c1.69-4.66,2.96-8.02,3.2-8.68c1.67-4.46,4.76-13.81,10.96-35.41
	C402.53,191.1,400.64,190.54,398.95,189.6z"/>
<g>
	<path d="M538.84,353.23c-2.79-17.69-6.14-35.36-8.64-53.12c1.44-0.77,2.59-1.5,3.46-2.1c2.27-1.56,2.67-2.24,2.53-2.74
		c-0.1-0.36-0.47-0.55-1.14-0.86c-1.02-0.47-2.47-1.06-4.34-1.6c-0.17-0.46-0.41-1.17-0.69-2.02c-0.82-2.57-1.43-5.04-1.88-7.39
		c-0.36-3.53-0.66-7.06-0.91-10.6c-0.44-2.61-0.86-5.22-1.13-7.85c-0.91-9.03-1.15-17.47-1.13-20.7c0.04-7.14-1.14-21.14-6.56-51.34
		c-2.44-0.72-4.88-1.45-7.31-2.17c-0.27-0.04-0.69-0.09-1.19-0.06c0,0-1.16,0.08-2.41,0.77c-0.56,0.31-1.23,0.87-1.93,1.62
		c-5.55,4.2-6.5,14.42-8.08,20.44c-3.75,14.23-7.52,28.45-11.32,42.67c-3.7,13.86-7.39,27.71-11.06,41.58
		c-0.24,0.93-0.5,1.85-0.75,2.78c-3.39,0.61-6.72,1.44-9.83,2.62c-0.5,0.19-0.63,0.7-0.45,1.07c0.01,0.08,0.04,0.17,0.07,0.26
		c0.25,0.57,0.68,0.93,1.03,1.43c0.32,0.44,0.48,0.89,0.9,1.27c0.55,0.49,1.13,0.92,1.75,1.27c1.01,0.78,2.17,1.34,3.63,1.5
		c0.05,0.01,0.13,0.01,0.23,0.03c-2.55,8.96-5.05,18.08-6.3,27.1c-0.27-0.25-0.53-0.5-0.81-0.74c-3.92-4.54-7.76-9.13-11.52-13.82
		c-3.54-4.41-7.29-8.69-10.61-13.27c-1.96-2.71-3.44-6.18-5.72-8.69c0.08-0.54,0.33-1.12,0.78-2.1c1.28-2.73,2.93-5.31,4.67-7.84
		c1.35-1.78,2.63-3.65,3.86-5.55c0.25-0.37,0.51-0.74,0.75-1.11c0,0,1.3-1.97,2.76-4.64c2.14-3.69,4.15-7.41,6.11-10.95
		c3.16-5.72,7.35-12.35,9.58-19.17c2.8-5.07,4.19-9.85,5.17-14.4c1.11-5.14,2.54-11.72,0.42-19.02c-1.53-5.3-4.18-8.4-4.9-9.2
		c-1.61-1.79-3.63-3.31-3.63-3.31c-0.16-0.12-1.3-0.97-2.75-1.82c-5.34-3.1-10.17-4.05-12.75-4.5c-6.59-1.17-20.71-2.01-36.75,4.53
		c-4.3,1.76-7.62,3.58-9.62,4.76c-0.72,0.26-1.38,0.51-2.55,1.07c-1.25,0.59-1.92,1.33-4.08,2.86c-0.73,0.47-1.44,0.95-2.15,1.43
		c-1.7,1.08-4.01,2.44-7.27,4.19c-1.05,0.56-2.11,1.13-3.16,2.07c-0.63,0.38-1.05,0.94-0.21,1.51c1.05,1.13,1.26,2.07,1.26,3.58
		c0.21,0.94,0.21,1.88,0.21,2.82c-0.21,1.51,0.84,2.64,1.69,3.58c0.84,1.13,2.74,0.75,3.16-0.56c0.42-1.13,0.42-2.64,1.26-3.58
		c0.84-0.94,2.32-1.69,3.16-2.45c0.84-0.94,1.69-1.7,2.53-2.26c0.63-0.56,1.27-1.13,1.69-1.7l9.91-5.46
		c1.07-0.6,2.23-1.05,3.42-1.54c-0.37,5.8,0.3,11.74,0.35,17.51c0.05,5.56-0.32,11.13-0.39,16.69c-0.28,2.27-0.43,3.3-0.85,7.45
		c0,0-1.11,10.93-1.98,25.57c-0.02,0.38-0.1,1.08-0.13,2.5c-0.06,3.02-0.12,6.05-0.17,9.07c0,0.01,0,0.02,0,0.03
		c0.06,1.33,0.05,2.68-0.04,4.04c0.26,9.53,0.05,19.92-0.91,31.04c-0.64,7.45-1.56,14.51-2.65,21.14c0.07,0.38,0.17,0.81,0.33,1.28
		c0.15,0.45,0.33,0.85,0.5,1.19c0.38,0.23,1.11,0.67,2.03,1.23c4.62,2.8,5.8,3.59,7.82,3.82c0.64,0.07,1.15,0.06,2.16,0.03
		c2.59-0.07,4.08-0.11,5.05-0.65c1.47-0.83,1.36-2.63,1.53-11.52c0.05-2.64,0.06-2.42,0.1-4.71c0.07-4.46,0.04-5.49,0.08-7.98
		c0.1-6.45,0.51-11.57,0.71-13.98c0.2-2.41,0.4-4.41,0.55-5.79h0.42c4.43,5.09,8.65,10.36,13.07,15.25
		c3.58,3.95,12.02,14.5,16.24,18.27c2.61,2.33,5.19,4.68,10.54,9.23c0.76,0.65,4.56,3.86,8.36,6.26c0.6,0.38,0.43,0.26,1.75,1.07
		c3.06,1.89,3.94,2.56,5.52,2.87c0.68,0.13,1.26,0.16,1.67,0.16c0.7-0.69,1.41-1.38,2.11-2.07v-0.94c-0.07-1-0.14-2.01-0.21-3.01
		c-0.04-0.31-0.1-0.77-0.19-1.32c-0.13-0.83-0.32-1.81-0.41-2.18c-0.38-1.44-1.65-1.97-4.04-4.04c-0.53-0.46-1.24-1.1-2.04-1.91
		c0.02-0.02,0.04-0.03,0.06-0.05c0.52-0.59,0.66-1.2,0.71-1.43c0.6-2.61,1.55-5.16,2.03-7.79c0.7-3.81,1.71-7.51,2.4-9.72
		c0.18-0.57,0.59-1.85,1.05-3.64c0.48-1.86,0.78-3.23,0.85-3.7c0.42-2.82,1.69-5.84,2.53-8.66c0.63-1.13,1.27-1.88,2.53-1.88
		c3.73-0.25,7.67-0.61,11.78-1.13c6.01-0.76,11.59-1.74,16.68-2.82c0.21,0,0.63,0.19,0.84,0.38c0.04,1.24,0.1,2.84,0.21,4.71
		c0,0,0.04,0.74,0.09,1.47c0.16,2.26,2.1,13.2,5.18,28.1c0.04,0.18,0.12,0.52,0.21,0.94c0.16,0.77,0.26,1.35,0.29,1.55
		c0.65,3.83,1.66,8.31,1.81,9c0.17,0.75,0.25,1.07,0.31,1.26c0,0.11,0.02,0.22,0.13,0.31c0.03,0.03,0.07,0.05,0.1,0.08
		c0.13,0.15,0.31,0.29,0.52,0.4c1.66,1.2,3.88,2.15,5.77,2.66c1.97,0.53,4.16,0.45,5.44-1.24
		C538.52,355.51,539.04,354.49,538.84,353.23z M422.65,289.22c-0.16-0.41-0.25-0.75-0.3-0.94c-1.66-6.7-1.53-17.62-1.53-17.62
		c0.01-1.12,0.04-3.22,0.05-5.92c0,0,0,0,0,0c-0.04,0,0.36-3.53,0.54-5.09c0.42-3.65,0.77-6.4,0.85-7.02
		c0.59-4.65,0.84-8.67,1.14-13.69c0.56-9.18,0.45-13.12,0.21-16.01c-0.42-5.08-1.05-8.66-5.06-14.88c0.33-0.21,0.95-0.6,1.75-1.05
		c8.77-4.87,19.49-5.3,25.48-2.99c1.99,0.77,3.83,1.88,3.83,1.88c1.2,0.73,2.87,1.76,4.36,3.47c0.33,0.38,1.42,1.68,2.47,4.19
		c3.28,7.91,0.97,15.49,0.48,17.09c0,0-0.01,0.02-0.01,0.04c-0.77,2.52-1.46,4.44-2.29,6.69c-0.86,1.81-1.73,3.61-2.67,5.37
		c-3.17,5.94-6.58,11.72-10.22,17.38C435.47,269.89,428.92,279.47,422.65,289.22z M510.9,294.5c-1.55,0.24-5.09,0.79-14.76,2.45
		c-1.58,0.27-3.82,0.66-6.54,1.13c1.05-3.2,1.69-6.59,2.74-9.6c0.99-2.82,1.1-4.13,1.76-6.44c1.05-3.63,2.01-6.55,2.67-8.44
		c0.32-1,0.78-2.45,1.29-4.22c0.85-2.94,2.08-7.57,3.98-18.01c0.6-3.31,1.34-7.59,2.11-12.62l2.95-9.79
		c0.17,1.55,0.34,3.1,0.52,4.66c1.22,10.77,2.6,21.4,4.12,31.88c0.19,1.38,0.47,3.41,0.8,5.86c0.8,5.78,1.19,8.67,1.52,10.86
		c0.41,2.79,1.03,6.72,1.9,11.53C514.85,293.9,513.08,294.16,510.9,294.5z"/>
	<path d="M511.33,186.58c0.63-0.05,1.7-0.67,4-1.51c6.75-2.45,9.28-5.27,11.6-9.61c0.6-1.13,1.45-3.23,1.26-5.27
		c-0.47-5.14-8-9.4-14.55-9.98c-1.93-0.17-8.82-0.78-12.61,4.01c-2.55,3.22-2.28,7.07-2.2,8.32
		C499.35,180.06,506.02,187.01,511.33,186.58z M506.05,172.08c0.46-2.69,2.4-6.72,5.63-7.25c0.94-0.15,1.81,0.02,2.18,0.09
		c2.79,0.56,4.23,2.62,4.4,2.87c2.08,3.1,0.1,6.77-0.39,7.68c-0.17,0.31-0.68,1.32-1.78,2.36c-1.26,1.19-2.8,1.85-5.18,3.1
		c-0.84,0.56-2.11,0.19-2.11-0.19C508.07,179.91,505.3,176.49,506.05,172.08z"/>
</g>
</svg>
